<svg width="164" height="164" viewBox="0 0 164 164" fill="none" xmlns="http://www.w3.org/2000/svg">
<circle cx="82" cy="82" r="81" fill="#D8D8D8" stroke="#979797"/>
<mask id="mask0" mask-type="alpha" maskUnits="userSpaceOnUse" x="25" y="25" width="114" height="114">
<path fill-rule="evenodd" clip-rule="evenodd" d="M81.9999 25.3333C50.7199 25.3333 25.3333 50.72 25.3333 82C25.3333 113.28 50.7199 138.667 81.9999 138.667C113.28 138.667 138.667 113.28 138.667 82C138.667 50.72 113.28 25.3333 81.9999 25.3333ZM81.9999 42.3333C91.4066 42.3333 98.9999 49.9267 98.9999 59.3333C98.9999 68.74 91.4066 76.3333 81.9999 76.3333C72.5933 76.3333 64.9999 68.74 64.9999 59.3333C64.9999 49.9267 72.5933 42.3333 81.9999 42.3333ZM47.9999 104.553C55.3099 115.547 67.8333 122.8 81.9999 122.8C96.1666 122.8 108.69 115.547 116 104.553C115.83 93.2767 93.2766 87.1 81.9999 87.1C70.6666 87.1 48.1699 93.2767 47.9999 104.553Z" fill="white"/>
</mask>
<g mask="url(#mask0)">
<rect x="14" y="14" width="136" height="136" fill="#80868B"/>
</g>
</svg>
